# xmcd CD database file
#
# Track frame offsets:
#	150
#	36897
#	70437
#	96087
#	133747
#	166847
#	186832
#	224842
#
# Disc length: 3216 seconds
#
# Revision: 1
# Processed by: cddbd v1.5.1PL0 Copyright (c) Steve Scherf et al.
# Submitted via: CDex 1.51
#
DISCID=790c8e08
DTITLE=Emilio Robalo - Oito Segredos
DYEAR=1994
DGENRE=New Age
TTITLE0=Paz
TTITLE1=Carnaval
TTITLE2=Infantil
TTITLE3=Balada
TTITLE4=I Love shoes
TTITLE5=Valsette
TTITLE6=Mambo
TTITLE7=Abrazo
EXTD=YEAR: 1994
EXTT0=
EXTT1=
EXTT2=
EXTT3=
EXTT4=
EXTT5=
EXTT6=
EXTT7=
PLAYORDER=
